<?xml version="1.0"?>
<svg xmlns="http://www.w3.org/2000/svg" xmlns:xlink="http://www.w3.org/1999/xlink" xmlns:svgjs="http://svgjs.com/svgjs" version="1.1" width="512" height="512" x="0" y="0" viewBox="0 0 512 512" style="enable-background:new 0 0 512 512" xml:space="preserve" class=""><g><g xmlns="http://www.w3.org/2000/svg"><g><path d="m263.5 304.49v-32.33c0-4.143-3.358-7.5-7.5-7.5h-181.83c-4.142 0-7.5 3.357-7.5 7.5v32.33c0 4.143 3.358 7.5 7.5 7.5h27.81c4.142 0 7.5-3.357 7.5-7.5s-3.358-7.5-7.5-7.5h-20.31v-17.33h166.83v17.33h-111.52c-4.142 0-7.5 3.357-7.5 7.5s3.358 7.5 7.5 7.5h119.02c4.142 0 7.5-3.357 7.5-7.5z" fill="#736346" data-original="#000000" style="" class=""/><path d="m388.76 239.837v-137.382c0-4.143-3.358-7.5-7.5-7.5h-137.382c-4.142 0-7.5 3.357-7.5 7.5v137.382c0 4.143 3.358 7.5 7.5 7.5h137.382c4.142 0 7.5-3.358 7.5-7.5zm-137.382-119.275 50.584 50.584-50.584 50.584zm10.607-10.607h101.168l-50.584 50.584zm50.584 71.798 50.584 50.584h-101.168zm10.607-10.607 50.584-50.584v101.168z" fill="#736346" data-original="#000000" style="" class=""/><path d="m74.171 247.337h137.382c4.142 0 7.5-3.357 7.5-7.5v-137.382c0-4.143-3.358-7.5-7.5-7.5h-137.382c-4.142 0-7.5 3.357-7.5 7.5v134.729.001 2.651c0 4.143 3.358 7.501 7.5 7.501zm129.882-25.607-50.584-50.584 50.584-50.584zm-10.607 10.607h-101.168l50.584-50.584zm-50.584-71.798-50.584-50.584h101.168zm-10.607 10.607-50.584 50.584v-101.168z" fill="#736346" data-original="#000000" style="" class=""/><path d="m34.35 338.58c0 4.143 3.358 7.5 7.5 7.5s7.5-3.357 7.5-7.5v-260.95h356.74v34.37c0 4.143 3.358 7.5 7.5 7.5s7.5-3.357 7.5-7.5l-.004-84.297c-.001-15.275-12.428-27.703-27.704-27.703h-331.333c-15.276 0-27.703 12.428-27.703 27.703zm14.996-310.877c0-7.005 5.698-12.703 12.703-12.703h331.333c7.004 0 12.703 5.698 12.703 12.703v34.927h-356.739z" fill="#736346" data-original="#000000" style="" class=""/><ellipse cx="373.179" cy="38.815" rx="8.081" ry="8.081" transform="matrix(.383 -.924 .924 .383 194.509 368.733)" fill="#736346" data-original="#000000" style="" class=""/><circle cx="340.854" cy="38.815" r="8.081" fill="#736346" data-original="#000000" style="" class=""/><circle cx="308.528" cy="38.815" r="8.081" fill="#736346" data-original="#000000" style="" class=""/><path d="m454.915 415.392c.34-2.968.511-5.94.511-8.877s-.171-5.91-.511-8.878l20.577-20.85c2.372-2.403 2.845-6.095 1.157-9.019l-16.163-27.994c-1.688-2.924-5.121-4.36-8.389-3.507l-28.336 7.393c-.877-.65-1.77-1.274-2.672-1.886v-194.774c0-4.143-3.358-7.5-7.5-7.5s-7.5 3.357-7.5 7.5v179.47l-5.481-19.93c-.895-3.256-3.855-5.512-7.231-5.512h-32.325c-3.376 0-6.336 2.256-7.231 5.512l-7.763 28.23c-5.457 2.369-10.61 5.347-15.389 8.89l-28.336-7.393c-3.268-.856-6.701.583-8.389 3.507l-16.163 27.994c-1.688 2.924-1.214 6.615 1.157 9.019l20.577 20.85c-.34 2.968-.511 5.941-.511 8.878s.171 5.909.511 8.877l-20.577 20.85c-2.372 2.403-2.845 6.095-1.157 9.019l16.163 27.994c1.688 2.923 5.118 4.358 8.389 3.507l28.336-7.393c4.778 3.544 9.93 6.52 15.389 8.89l5.154 18.741h-289.162c-7.002 0-12.7-5.697-12.7-12.7v-110.72c0-4.143-3.358-7.5-7.5-7.5s-7.5 3.357-7.5 7.5v110.72c0 15.274 12.426 27.7 27.7 27.7h331.33c15.279 0 27.71-12.426 27.71-27.7v-13.066c.898-.61 1.798-1.218 2.672-1.866l28.336 7.393c3.268.857 6.701-.583 8.389-3.507l16.163-27.994c1.688-2.924 1.214-6.615-1.157-9.019zm-4.561 45.412-26.39-6.885c-2.325-.604-4.799-.063-6.655 1.462-5.348 4.395-11.347 7.859-17.83 10.3-2.247.847-3.953 2.716-4.589 5.031l-7.228 26.288h-20.894l-7.229-26.288c-.636-2.314-2.342-4.185-4.589-5.031-6.482-2.44-12.481-5.905-17.83-10.3-1.856-1.525-4.328-2.067-6.655-1.462l-26.39 6.885-10.447-18.094 19.161-19.414c1.685-1.707 2.451-4.115 2.063-6.481-.563-3.438-.849-6.903-.849-10.3s.286-6.863.849-10.301c.388-2.366-.379-4.774-2.063-6.481l-19.161-19.414 10.447-18.094 26.39 6.885c2.326.605 4.798.062 6.654-1.462 5.351-4.395 11.35-7.86 17.83-10.3 2.247-.847 3.953-2.717 4.589-5.031l7.229-26.288h20.894l7.229 26.288c.636 2.315 2.342 4.185 4.589 5.031 6.48 2.439 12.479 5.905 17.83 10.3 1.856 1.525 4.33 2.069 6.654 1.462l26.39-6.885 10.447 18.094-19.161 19.414c-1.685 1.707-2.451 4.115-2.063 6.481.563 3.438.849 6.903.849 10.301 0 3.396-.286 6.862-.849 10.3-.388 2.366.379 4.774 2.063 6.481l19.161 19.414z" fill="#736346" data-original="#000000" style="" class=""/><path d="m377.215 376.791c-16.39 0-29.723 13.334-29.723 29.724s13.333 29.724 29.723 29.724 29.724-13.334 29.724-29.724-13.335-29.724-29.724-29.724zm0 44.447c-8.118 0-14.723-6.604-14.723-14.724s6.605-14.724 14.723-14.724c8.119 0 14.724 6.604 14.724 14.724s-6.606 14.724-14.724 14.724z" fill="#736346" data-original="#000000" style="" class=""/><path d="m162.484 369.139c0-4.143-3.358-7.5-7.5-7.5h-28.285c-4.142 0-7.5 3.357-7.5 7.5s3.358 7.5 7.5 7.5h28.285c4.142 0 7.5-3.358 7.5-7.5z" fill="#736346" data-original="#000000" style="" class=""/><path d="m251.959 361.639h-64.65c-4.142 0-7.5 3.357-7.5 7.5s3.358 7.5 7.5 7.5h64.65c4.142 0 7.5-3.357 7.5-7.5s-3.357-7.5-7.5-7.5z" fill="#736346" data-original="#000000" style="" class=""/><path d="m111.547 426.289h-37.376c-4.142 0-7.5 3.357-7.5 7.5s3.358 7.5 7.5 7.5h37.376c4.142 0 7.5-3.357 7.5-7.5s-3.358-7.5-7.5-7.5z" fill="#736346" data-original="#000000" style="" class=""/><path d="m199.431 426.289h-55.559c-4.142 0-7.5 3.357-7.5 7.5s3.358 7.5 7.5 7.5h55.559c4.142 0 7.5-3.357 7.5-7.5s-3.358-7.5-7.5-7.5z" fill="#736346" data-original="#000000" style="" class=""/><path d="m251.959 393.964h-108.087c-4.142 0-7.5 3.357-7.5 7.5s3.358 7.5 7.5 7.5h108.087c4.142 0 7.5-3.357 7.5-7.5s-3.357-7.5-7.5-7.5z" fill="#736346" data-original="#000000" style="" class=""/><path d="m111.547 393.964h-37.376c-4.142 0-7.5 3.357-7.5 7.5s3.358 7.5 7.5 7.5h37.376c4.142 0 7.5-3.357 7.5-7.5s-3.358-7.5-7.5-7.5z" fill="#736346" data-original="#000000" style="" class=""/><path d="m111.547 458.614h-37.376c-4.142 0-7.5 3.357-7.5 7.5s3.358 7.5 7.5 7.5h37.376c4.142 0 7.5-3.357 7.5-7.5s-3.358-7.5-7.5-7.5z" fill="#736346" data-original="#000000" style="" class=""/><path d="m199.431 458.614h-55.559c-4.142 0-7.5 3.357-7.5 7.5s3.358 7.5 7.5 7.5h55.559c4.142 0 7.5-3.357 7.5-7.5s-3.358-7.5-7.5-7.5z" fill="#736346" data-original="#000000" style="" class=""/><path d="m100.23 332.128c-2.588-3.234-7.308-3.76-10.542-1.171l-20.203 16.162c-1.779 1.423-2.815 3.578-2.815 5.856s1.036 4.434 2.814 5.856l20.203 16.163c1.383 1.106 3.038 1.644 4.681 1.644 2.2 0 4.38-.963 5.861-2.814 2.587-3.234 2.063-7.954-1.171-10.542l-12.883-10.307 12.882-10.306c3.236-2.587 3.761-7.306 1.173-10.541z" fill="#736346" data-original="#000000" style="" class=""/><path d="m225.899 470.8c1.481 1.852 3.661 2.814 5.861 2.814 1.643 0 3.297-.537 4.68-1.644l20.204-16.163c1.779-1.423 2.815-3.578 2.815-5.856s-1.036-4.434-2.815-5.856l-20.204-16.162c-3.234-2.588-7.955-2.063-10.542 1.171-2.588 3.235-2.063 7.955 1.171 10.542l12.883 10.306-12.883 10.307c-3.233 2.587-3.757 7.306-1.17 10.541z" fill="#736346" data-original="#000000" style="" class=""/></g></g></g></svg>
