<?xml version="1.0"?>
<svg xmlns="http://www.w3.org/2000/svg" xmlns:xlink="http://www.w3.org/1999/xlink" xmlns:svgjs="http://svgjs.com/svgjs" version="1.1" width="512" height="512" x="0" y="0" viewBox="0 0 512 512" style="enable-background:new 0 0 512 512" xml:space="preserve" class=""><g><g xmlns="http://www.w3.org/2000/svg"><path d="m466.593 143.048h-60.267c-8.281 0-15.002 6.721-15.002 15.002v338.949c0 8.281 6.721 15.002 15.002 15.002h60.267c8.281 0 15.002-6.721 15.002-15.002v-338.95c0-8.28-6.721-15.001-15.002-15.001z" fill="#736346" data-original="#000000" style="" class=""/><path d="m225.566 361.483h-60.267c-8.281 0-15.002 6.721-15.002 15.002v120.514c0 8.281 6.721 15.002 15.002 15.002h60.267c8.281 0 15.002-6.721 15.002-15.002v-120.515c-.001-8.28-6.721-15.001-15.002-15.001z" fill="#736346" data-original="#000000" style="" class=""/><path d="m346.079 301.216h-60.267c-8.281 0-15.002 6.711-15.002 15.002v180.781c0 8.281 6.721 15.002 15.002 15.002h60.267c8.281 0 15.002-6.721 15.002-15.002v-180.781c0-8.291-6.721-15.002-15.002-15.002z" fill="#736346" data-original="#000000" style="" class=""/><path d="m105.052 391.606h-60.267c-8.281 0-15.002 6.721-15.002 15.002v90.39c0 8.281 6.721 15.002 15.002 15.002h60.267c8.281 0 15.002-6.721 15.002-15.002v-90.39c0-8.281-6.721-15.002-15.002-15.002z" fill="#736346" data-original="#000000" style="" class=""/><path d="m511.628 16.113c.548-7.694-5.798-15.998-14.995-15.871l-64.697-.242c-.019 0-.038 0-.057 0-8.259 0-14.97 6.679-15.001 14.946-.031 8.285 6.661 15.027 14.946 15.058l17.973.067-.006.004-129.945 92.081c-.1-.11-.21-.22-.32-.33-8.841-8.841-21.223-12.501-32.954-10.681-1.18-1.63-2.5-3.17-3.93-4.611-7.221-7.201-16.802-11.171-26.983-11.171-12.511 0-23.853 6.171-30.864 15.762-1.99-.32-4.01-.48-6.04-.48-10.191.01-19.782 3.98-26.983 11.181-8.861 8.861-12.511 21.262-10.671 33.004-9.611 7.011-15.782 18.362-15.782 30.884 0 12.511 6.181 23.853 15.782 30.864-.22 1.4-.36 2.8-.42 4.2l-174.013 123.315c-6.76 4.79-8.356 14.153-3.566 20.914 2.924 4.127 7.553 6.329 12.252 6.329 2.999 0 6.028-.897 8.661-2.763l167.821-118.928c8.851 8.818 21.22 12.457 32.93 10.617 7.011 9.601 18.362 15.792 30.883 15.792s23.873-6.181 30.884-15.792c11.741 1.84 24.153-1.81 33.004-10.671 8.851-8.851 12.511-21.232 10.681-32.974 1.63-1.17 3.17-2.48 4.59-3.91 7.211-7.211 11.181-16.802 11.181-27.003 0-12.511-6.161-23.843-15.752-30.854.19-1.18.32-2.37.39-3.56l136.506-96.731.002-.001-5.888 16.966c-2.716 7.827 1.427 16.374 9.254 19.091 1.628.565 3.288.833 4.92.833 6.211 0 12.02-3.889 14.172-10.087l21.123-60.863c.297-.88.829-2.536.912-4.385zm-266.57 158.978c5.861-5.861 15.352-5.861 21.212 0 5.861 5.861 5.861 15.362 0 21.212-2.931 2.93-6.771 4.401-10.611 4.401-3.841 0-7.681-1.47-10.611-4.391-5.851-5.861-5.861-15.352 0-21.212z" fill="#736346" data-original="#000000" style="" class=""/></g></g></svg>
